HIERARCHY
ROOT Hips
{
  OFFSET 0 0 0
  CHANNELS 6 Xposition Yposition Zposition Zrotation Yrotation Xrotation
  JOINT LeftThigh
  {
    OFFSET 8.409438 0 -5.917753
    CHANNELS 3 Zrotation Yrotation Xrotation
    JOINT LeftLeg
    {
      OFFSET 0 0 -42.358652
      CHANNELS 3 Zrotation Yrotation Xrotation
      JOINT LeftFoot
      {
        OFFSET 0 0 -39.357303
        CHANNELS 3 Zrotation Yrotation Xrotation
      }
    }
  }
  JOINT RightThigh
  {
    OFFSET -8.409438 0 -5.917753
    CHANNELS 3 Zrotation Yrotation Xrotation
    JOINT RightLeg
    {
      OFFSET 0 0 -42.358652
      CHANNELS 3 Zrotation Yrotation Xrotation
      JOINT RightFoot
      {
        OFFSET 0 0 -39.357303
        CHANNELS 3 Zrotation Yrotation Xrotation
      }
    }
  }
  JOINT SpineLow
  {
    OFFSET 0 0 4.719101
    CHANNELS 3 Zrotation Yrotation Xrotation
    JOINT SpineMid
    {
      OFFSET 0 0 12.899191
      CHANNELS 3 Zrotation Yrotation Xrotation
      JOINT Chest
      {
        OFFSET 0 0 12.899191
        CHANNELS 3 Zrotation Yrotation Xrotation
        JOINT LeftShoulder
        {
          OFFSET 7.550562 1.41573 9.438202
          CHANNELS 3 Zrotation Yrotation Xrotation
          JOINT LeftArm
          {
            OFFSET 9.155056 0 4.247191
            CHANNELS 3 Zrotation Yrotation Xrotation
            JOINT LeftForearm
            {
              OFFSET 0 0 25.771955
              CHANNELS 3 Zrotation Yrotation Xrotation
              JOINT LeftHand
              {
                OFFSET 0 0 25.197169
                CHANNELS 3 Zrotation Yrotation Xrotation
              }
            }
          }
        }
        JOINT RightShoulder
        {
          OFFSET -7.550562 1.41573 9.438202
          CHANNELS 3 Zrotation Yrotation Xrotation
          JOINT RightArm
          {
            OFFSET -9.155056 0 4.247191
            CHANNELS 3 Zrotation Yrotation Xrotation
            JOINT RightForearm
            {
              OFFSET 0 0 -25.771955
              CHANNELS 3 Zrotation Yrotation Xrotation
              JOINT RightHand
              {
                OFFSET 0 0 -25.197169
                CHANNELS 3 Zrotation Yrotation Xrotation
              }
            }
          }
        }
        JOINT Neck
        {
          OFFSET 0 0 15.101124
          CHANNELS 3 Zrotation Yrotation Xrotation
          JOINT Head
          {
            OFFSET 0 0 11.325843
            CHANNELS 3 Zrotation Yrotation Xrotation
            End Site
            {
              OFFSET 0 0 14.157303
            }
          }
        }
      }
    }
  }
}
MOTION
Frames: 16
Frame Time: 0.0
0.0  89.887642  0.0  3.19583  28.882911  -85.178955  3.944318  -40.987544  -6.980635  5.501367  43.908394  46.982126  -1.483228  -3.886329  -1.276775  -30.850773  -0.695383  -51.86358  2.784406  17.577172  56.231703  10.291924  2.155482  2.037251  -2.217951  -0.242313  -0.735316  -6.054759  -0.72902  -1.985835  -6.054759  -0.72902  -1.985835  -0.055916  21.626382  8.380159  117.406153  39.322634  -150.492822  -20.91526  -4.995925  91.252404  81.999918  18.488294  -7.681512  -2.960054  3.62728  24.534306  25.103675  63.881158  -13.309038  -20.550371  -13.486861  -85.282356  92.372542  26.968366  -14.350514  -4.157387  3.507892  4.44244  -3.142788  2.601016  3.35486  
0.0  89.887642  0.0  3.008472  28.969064  -85.486658  4.535728  -41.178097  -7.022119  4.641364  43.967384  46.632449  -1.632274  -3.869968  -1.29523  -30.817336  -0.705172  -51.619156  2.839707  17.568897  56.214142  10.180506  2.168779  1.972612  -2.168947  -0.308124  -0.715173  -5.919231  -0.905464  -1.925538  -5.919231  -0.905464  -1.925539  -0.510283  21.730069  8.240871  116.666661  39.044143  -151.07527  -21.638208  -4.354047  90.930322  81.676946  18.900681  -7.10069  -3.304432  3.998017  24.585491  25.383996  63.539924  -12.662491  -20.205685  -13.779305  -85.16012  92.329465  26.771136  -14.513854  -4.395208  3.663941  4.448525  -3.32219  2.716314  3.361843  
0.0  89.887642  0.0  2.902295  29.015186  -85.721494  5.119952  -41.267444  -7.046473  3.935514  43.866553  46.335727  -1.871661  -3.80458  -1.295355  -30.551642  -0.703375  -51.29165  2.852746  17.673122  56.042499  9.686159  2.050886  1.853655  -2.121339  -0.348593  -0.709  -5.788091  -1.014063  -1.905842  -5.788092  -1.014063  -1.905842  -0.953185  21.770445  8.205624  116.821868  38.710529  -151.287733  -21.815251  -3.667108  90.737059  81.315837  19.245441  -6.521474  -4.046912  4.259814  24.564265  26.43254  63.425998  -11.651781  -19.838481  -14.225958  -84.992972  92.13566  26.460967  -14.68332  -4.593208  3.798076  4.470453  -3.47168  2.81534  3.380418  
0.0  89.887642  0.0  2.782599  28.874271  -85.95988  5.556905  -41.270841  -6.901503  3.703325  43.572292  46.324432  -2.266561  -3.801931  -1.363278  -30.222534  -0.60534  -51.094746  2.827185  17.613596  55.922695  9.654586  2.01776  1.863099  -2.044183  -0.388469  -0.70674  -5.576158  -1.120572  -1.897561  -5.576158  -1.120572  -1.897561  -1.292547  21.842905  8.265874  116.521995  38.640775  -151.635561  -22.265149  -3.282587  90.483811  81.024964  19.457172  -6.112175  -4.311933  4.472008  24.71531  26.747257  63.302926  -11.013508  -19.507403  -14.73457  -84.7909  91.846911  26.138701  -14.837319  -4.797374  3.938465  4.493945  -3.625843  2.918989  3.400335  
0.0  89.887642  0.0  2.699015  28.68599  -86.156615  5.83917  -41.269612  -6.782358  3.000294  43.33923  45.713406  -2.302815  -3.430542  -1.173506  -29.811259  -0.531371  -50.870155  3.000172  17.445986  55.854844  9.488681  1.96691  1.828364  -2.007448  -0.403122  -0.708407  -5.475323  -1.159687  -1.901559  -5.475322  -1.159686  -1.901558  -1.373344  21.766976  8.34833  117.258853  38.472708  -151.584676  -21.911303  -2.900502  90.374166  80.845223  19.482214  -5.882595  -4.626694  4.511065  24.783117  27.428891  63.334196  -10.244107  -19.150374  -15.199925  -84.602777  91.549853  25.825514  -14.91432  -4.856347  4.025349  4.50497  -3.67071  2.983647  3.409623  
0.0  89.887642  0.0  2.620552  28.423122  -86.345795  5.8571  -41.277147  -6.522484  2.977989  43.330402  45.686288  -2.369671  -3.427197  -1.200188  -29.354099  -0.411825  -50.683365  2.920109  17.434418  55.695831  9.444231  1.950281  1.808015  -1.964765  -0.432098  -0.707847  -5.357887  -1.237566  -1.898475  -5.357887  -1.237566  -1.898475  -1.288292  21.748901  8.459359  117.483761  38.506309  -151.647345  -21.854677  -2.77936  90.188933  80.782078  19.369358  -5.814578  -4.555586  4.647306  24.918583  27.728694  63.318075  -9.734908  -19.040678  -15.498755  -84.28809  91.33026  25.554478  -14.904876  -4.867431  4.142538  4.511672  -3.679844  3.071419  3.415577  
0.0  89.887642  0.0  2.547148  28.077913  -86.566075  5.583387  -41.19865  -6.053437  3.028938  43.3567  45.529724  -2.248276  -3.421808  -1.181214  -28.671409  -0.226427  -50.371685  2.929748  17.392043  55.562044  9.234596  1.835205  1.741287  -1.962264  -0.448598  -0.704284  -5.350681  -1.28227  -1.887465  -5.350681  -1.28227  -1.887465  -0.931885  21.628825  8.576858  118.097935  38.426307  -151.412121  -21.534739  -2.840414  89.982859  80.750465  19.263614  -5.853722  -4.464332  4.695026  25.003276  28.146939  63.409339  -9.276663  -18.877638  -15.692321  -84.013199  91.219935  25.362059  -14.859014  -4.777826  4.244924  4.488276  -3.613182  3.149054  3.39815  
0.0  89.887642  0.0  2.506938  27.81553  -86.713898  5.122141  -41.055587  -5.596037  3.260495  43.322056  45.448694  -2.137282  -3.423091  -1.16747  -28.295096  -0.130828  -50.208875  2.790479  17.524664  55.356204  9.278538  1.798391  1.72539  -1.928275  -0.464471  -0.694546  -5.257553  -1.323895  -1.860294  -5.257553  -1.323895  -1.860294  -0.789293  21.504312  8.606338  118.589839  38.355528  -151.298263  -21.217413  -2.907751  89.879774  80.647662  19.156705  -5.989595  -4.358003  4.759996  25.044679  28.37073  63.440174  -8.927086  -18.979587  -15.724577  -83.635038  91.21016  25.255356  -14.801916  -4.768519  4.306597  4.462306  -3.606426  3.195583  3.379051  
0.0  89.887642  0.0  2.444543  27.501307  -86.845767  4.634317  -40.913533  -5.134394  3.397214  43.29117  45.265706  -1.905534  -3.345696  -1.146228  -27.964002  -0.040178  -50.062015  2.817451  17.516472  55.200448  9.163256  1.700728  1.676003  -1.905177  -0.474163  -0.679295  -5.194481  -1.348528  -1.818353  -5.194481  -1.348528  -1.818353  -0.663016  21.296089  8.548654  119.095711  38.203376  -150.984453  -20.991538  -2.760089  89.93295  80.832201  19.412135  -6.18627  -4.232445  4.700117  25.039123  28.425697  63.544486  -8.683184  -18.991803  -15.7014  -83.380774  91.230887  25.221478  -14.79352  -4.76624  4.341054  4.385128  -3.604386  3.222041  3.32142  
0.0  89.887642  0.0  2.419411  27.30824  -86.881658  4.057924  -40.739578  -4.805338  3.909816  43.138545  45.402414  -1.907724  -3.348052  -1.155912  -27.740125  0.013068  -50.004419  2.691879  17.569566  54.990239  9.183621  1.660906  1.671974  -1.886423  -0.483984  -0.660444  -5.143369  -1.373381  -1.766491  -5.14337  -1.373381  -1.76649  -0.549701  21.10765  8.440091  119.606141  38.034406  -150.779725  -20.870593  -2.709235  89.852113  80.730922  19.432304  -6.18879  -4.13006  4.683292  24.857455  28.740864  63.570424  -8.239086  -19.16073  -15.587524  -83.098821  91.251575  25.216774  -14.834143  -4.75047  4.344557  4.306207  -3.592016  3.225387  3.262165  
0.0  89.887642  0.0  2.348798  27.061115  -86.997104  3.799481  -40.608452  -4.427983  3.797259  43.071587  45.119409  -1.921726  -3.319461  -1.182016  -27.662134  0.06399  -49.952344  2.514662  17.676979  54.752189  9.325478  1.603383  1.682354  -1.857228  -0.500322  -0.634994  -5.063716  -1.415293  -1.696345  -5.063716  -1.415293  -1.696345  -0.750794  20.962997  8.229733  120.161996  37.813291  -150.487272  -20.980889  -2.587681  89.827025  80.701464  19.723722  -6.185365  -4.206857  4.636872  24.658616  29.162767  63.690305  -7.669062  -19.143185  -15.537634  -82.987909  91.297766  25.245766  -14.85297  -4.8078  4.369815  4.216361  -3.634502  3.244633  3.195404  
0.0  89.887642  0.0  2.367523  26.979297  -87.023067  3.461785  -40.342185  -4.232201  3.901323  42.897834  45.098753  -1.937202  -3.315773  -1.193781  -27.579784  0.195954  -49.941859  2.388664  17.623176  54.613577  9.35465  1.558124  1.707331  -1.843346  -0.501645  -0.613077  -5.026218  -1.416895  -1.636673  -5.026218  -1.416895  -1.636672  -0.741587  20.82603  8.09424  120.61833  37.596345  -150.336946  -21.000172  -2.476666  89.792139  80.454129  19.843218  -6.124662  -4.180807  4.614515  24.435182  29.474158  63.674639  -7.187938  -19.216133  -15.421871  -82.87555  91.324028  25.27425  -14.890069  -4.858401  4.345069  4.148487  -3.671795  3.22626  3.144707  
0.0  89.887642  0.0  2.357346  26.818739  -87.079489  3.282871  -40.056393  -4.007377  3.876269  42.648896  44.985186  -1.973715  -3.286363  -1.198577  -27.644354  0.307122  -50.006387  2.336137  17.405892  54.523984  9.452183  1.51572  1.759032  -1.86215  -0.503365  -0.592655  -5.078031  -1.420483  -1.580338  -5.078031  -1.420483  -1.580338  -0.524975  20.69026  7.95262  121.041553  37.347212  -150.143185  -20.897317  -2.148553  89.992158  80.419452  20.235651  -6.358224  -4.192337  4.537803  24.157656  30.166342  63.784753  -6.436253  -19.129791  -15.362787  -82.865798  91.294989  25.361486  -14.952791  -4.81957  4.345333  4.054026  -3.642004  3.227455  3.073611  
0.0  89.887642  0.0  2.433293  26.756517  -87.052141  3.053154  -39.734289  -3.850517  3.820952  42.463154  44.853884  -1.998339  -3.268773  -1.202039  -27.604125  0.435112  -50.085007  2.296471  17.19477  54.463822  9.47475  1.489637  1.811781  -1.866433  -0.495666  -0.563943  -5.090527  -1.397349  -1.502392  -5.090527  -1.397349  -1.502392  -0.454258  20.593271  7.716387  121.495073  37.09914  -149.991837  -20.956645  -2.023668  89.966098  80.293668  20.315716  -6.295205  -4.072078  4.520263  23.87908  30.362615  63.767192  -6.043684  -19.13874  -15.269392  -82.87357  91.331278  25.446195  -14.983377  -4.832483  4.304197  3.941647  -3.650639  3.197393  2.989155  
0.0  89.887642  0.0  2.509573  26.703683  -87.02892  2.952542  -39.421331  -3.614262  3.569303  42.265423  44.587674  -2.085353  -3.239393  -1.247008  -27.814264  0.511135  -50.223559  2.516537  16.749276  54.508268  9.502622  1.456637  1.865684  -1.873176  -0.483164  -0.544263  -5.10963  -1.361835  -1.44944  -5.10963  -1.361835  -1.44944  -0.473473  20.506144  7.52885  121.835159  36.921496  -149.725106  -20.913708  -1.839687  90.0363  80.33196  20.578126  -6.621247  -4.180127  4.457269  23.614851  31.008468  63.864983  -5.371016  -19.24676  -15.123494  -82.827359  91.320551  25.566589  -15.072197  -4.890158  4.262815  3.84711  -3.692973  3.166735  2.918385  
0.0  89.887642  0.0  2.598589  26.649967  -86.99774  2.814399  -39.11732  -3.455592  3.240231  42.150911  44.244404  -2.095215  -3.215386  -1.245935  -27.85355  0.549112  -50.287722  2.569067  16.565418  54.455029  9.557848  1.445391  1.928982  -1.862659  -0.469736  -0.525175  -5.081537  -1.323466  -1.39854  -5.081538  -1.323466  -1.39854  -0.483765  20.472202  7.429499  122.310419  36.78242  -149.496664  -20.913325  -1.81043  89.986068  80.28098  20.578536  -6.686772  -4.138746  4.436883  23.431962  31.156511  63.900193  -4.973329  -19.327895  -14.987026  -82.878346  91.358566  25.684251  -15.138018  -4.969993  4.200235  3.795369  -3.752118  3.119716  2.879686  
